<svg width="32" height="32" viewBox="0 0 200 200" xmlns="http://www.w3.org/2000/svg">
  <defs>
    <linearGradient id="gold" x1="0%" y1="0%" x2="100%" y2="100%">
      <stop offset="0%" stop-color="#fff0a0"/>
      <stop offset="40%" stop-color="#ffd700"/>
      <stop offset="100%" stop-color="#b8860b"/>
    </linearGradient>
    <linearGradient id="sole" x1="0%" y1="0%" x2="0%" y2="100%">
      <stop offset="0%" stop-color="#c8a430"/>
      <stop offset="100%" stop-color="#7a5c00"/>
    </linearGradient>
  </defs>

  <!-- Sole -->
  <path d="M45 155 Q100 165 155 155 L152 168 Q100 178 48 168 Z" fill="url(#sole)" stroke="#6a4c00" stroke-width="1.5"/>

  <!-- Straps -->
  <path d="M72 152 C70 140 74 125 88 115" stroke="url(#gold)" stroke-width="5" fill="none" stroke-linecap="round"/>
  <path d="M128 152 C130 140 126 125 112 115" stroke="url(#gold)" stroke-width="5" fill="none" stroke-linecap="round"/>
  <path d="M72 118 Q100 112 128 118" stroke="url(#gold)" stroke-width="5" fill="none" stroke-linecap="round"/>

  <!-- Left wing -->
  <path d="M80 112 C65 100 40 80 18 52 C28 72 50 95 76 118 Z" fill="url(#gold)" stroke="#b8860b" stroke-width="1.5"/>
  <path d="M70 128 C54 124 36 115 24 98 C36 112 56 122 70 132 Z" fill="#d4af37" stroke="#b8860b" stroke-width="1"/>

  <!-- Right wing -->
  <path d="M120 112 C135 100 160 80 182 52 C172 72 150 95 124 118 Z" fill="url(#gold)" stroke="#b8860b" stroke-width="1.5"/>
  <path d="M130 128 C146 124 164 115 176 98 C164 112 144 122 130 132 Z" fill="#d4af37" stroke="#b8860b" stroke-width="1"/>

  <!-- Buckle -->
  <ellipse cx="100" cy="115" rx="7" ry="5" fill="url(#gold)" stroke="#8a6800" stroke-width="1.5"/>
</svg>
